# xmcd CD database generated by RipIT
#
# Track frame offsets:
# 150
# 21999
# 34288
# 57162
# 80055
# 86105
# 114999
# 128395
# 152086
# 165408
# 209708
#
# Disc length: 2802 seconds
#
# Revision: 0
# Processed by: cddbd v1.5.2PL0 Copyright (c) Steve Scherf et al.
# Submitted via: RipIT 3.9.0 www.suwald.com/ripit/ripit.html on 2012-06-18 at 22:32
#
DISCID=8d0af00b
DTITLE=Jasco - Ain't Jus' Blues
DYEAR=2010
DGENRE=blues
TTITLE0=Era of Elegance
TTITLE1=Always With Me, Always With You
TTITLE2=Diablo Suave
TTITLE3=Train Tracks
TTITLE4=Variations in Tremolo from Op. 21
TTITLE5=Malaguena
TTITLE6=Djangolang
TTITLE7=One Summer's Day
TTITLE8=Just a Moment
TTITLE9=Remembrance
TTITLE10=Untitled
EXTD=
EXTT0=
EXTT1=
EXTT2=
EXTT3=
EXTT4=
EXTT5=
EXTT6=
EXTT7=
EXTT8=
EXTT9=
EXTT10=
PLAYORDER=
